# xmcd
#
# Track frame offsets: 
#        150
#        19212
#        35770
#        44987
#        53167
#        79462
#        92277
#        101440
#        124557
#        136027
#
# Disc length: 2020 seconds
#
# Revision: 1
# Processed by: cddbd v1.5.2PL0 Copyright (c) Steve Scherf et al.
# Submitted via: ExactAudioCopy v1.1
#
DISCID=8007e20a
DTITLE=浅川マキ(vo) 本田俊之(as,ss,key,p) Boby Watson(b) 横山達嗣(perc) Tristan Ho
DTITLE=nsinger(メッセージ&ギグ客席音,Cello) - 幻の女たち - 浅川マキ・本田俊之 Duo (II)
DYEAR=1988
DGENRE=Blues
TTITLE0=ネオン輝く日々
TTITLE1=夜の匂い
TTITLE2=メッセージ
TTITLE3=ジンハウス・ブルース
TTITLE4=あなたに ～ カスバの女 ～ Shanghai
TTITLE5=La Valse 女たちのボレロ
TTITLE6=エトランゼ
TTITLE7=放出したエナジー
TTITLE8=Rapsodie de la Russie
TTITLE9=男からの声
EXTD=YEAR: 1988
EXTT0=
EXTT1=
EXTT2=
EXTT3=
EXTT4=
EXTT5=
EXTT6=
EXTT7=
EXTT8=
EXTT9=
PLAYORDER=
